{
	"asset":{
		"generator":"Khronos glTF Blender I/O v4.1.63",
		"version":"2.0"
	},
	"scene":0,
	"scenes":[
		{
			"name":"Scene",
			"nodes":[
				0
			]
		}
	],
	"nodes":[
		{
			"mesh":0,
			"name":"bunny",
			"rotation":[
				0,
				-1,
				0,
				1.6292068494294654e-07
			]
		}
	],
	"materials":[
		{
			"doubleSided":true,
			"name":"Material.004",
			"pbrMetallicRoughness":{
				"baseColorTexture":{
					"index":0
				},
				"metallicFactor":0,
				"roughnessFactor":0.5
			}
		}
	],
	"meshes":[
		{
			"name":"bunny.003",
			"primitives":[
				{
					"attributes":{
						"POSITION":0,
						"NORMAL":1,
						"TEXCOORD_0":2
					},
					"indices":3,
					"material":0
				}
			]
		}
	],
	"textures":[
		{
			"sampler":0,
			"source":0
		}
	],
	"images":[
		{
			"mimeType":"image/png",
			"name":"uvChecker",
			"uri":"uvChecker.png"
		}
	],
	"accessors":[
		{
			"bufferView":0,
			"componentType":5126,
			"count":72378,
			"max":[
				0.6579000949859619,
				1.641800045967102,
				0.6894999146461487
			],
			"min":[
				-0.9558997750282288,
				0.021000010892748833,
				-0.5429997444152832
			],
			"type":"VEC3"
		},
		{
			"bufferView":1,
			"componentType":5126,
			"count":72378,
			"type":"VEC3"
		},
		{
			"bufferView":2,
			"componentType":5126,
			"count":72378,
			"type":"VEC2"
		},
		{
			"bufferView":3,
			"componentType":5125,
			"count":432138,
			"type":"SCALAR"
		}
	],
	"bufferViews":[
		{
			"buffer":0,
			"byteLength":868536,
			"byteOffset":0,
			"target":34962
		},
		{
			"buffer":0,
			"byteLength":868536,
			"byteOffset":868536,
			"target":34962
		},
		{
			"buffer":0,
			"byteLength":579024,
			"byteOffset":1737072,
			"target":34962
		},
		{
			"buffer":0,
			"byteLength":1728552,
			"byteOffset":2316096,
			"target":34963
		}
	],
	"samplers":[
		{
			"magFilter":9729,
			"minFilter":9987
		}
	],
	"buffers":[
		{
			"byteLength":4044648,
			"uri":"testbunny.bin"
		}
	]
}
