# Blender 4.1.1
# www.blender.org
mtllib playerArmRight.mtl
o Cube.001
v -0.618514 0.689296 0.273739
v -0.072141 -0.777161 0.273739
v -0.618514 0.689296 -0.273739
v -0.141752 0.866928 0.273739
v 0.404621 -0.599529 0.273739
v -0.141752 0.866928 -0.273739
v 0.404621 -0.599529 -0.273739
v -0.072141 -0.777161 -0.273739
vn -0.0000 -0.0000 1.0000
vn -0.9371 -0.3491 -0.0000
vn -0.3491 0.9371 -0.0000
vn 0.9371 0.3491 -0.0000
vn -0.0000 -0.0000 -1.0000
vn 0.3491 -0.9371 -0.0000
vt 0.254256 0.254256
vt 0.500000 0.254256
vt 0.500000 0.500000
vt 0.254256 0.500000
vt 0.500000 0.745744
vt 0.254256 0.745744
vt 0.745744 0.500000
vt 0.745744 0.745744
vt 0.254256 0.008513
vt 0.500000 0.008513
vt 0.500000 0.991487
vt 0.254256 0.991487
vt 0.008513 0.500000
vt 0.008513 0.745744
s 0
usemtl Material.002
f 5/1/1 4/2/1 1/3/1 2/4/1
f 2/4/2 1/3/2 3/5/2 8/6/2
f 1/3/3 4/7/3 6/8/3 3/5/3
f 7/9/4 6/10/4 4/2/4 5/1/4
f 8/6/5 3/5/5 6/11/5 7/12/5
f 5/13/6 2/4/6 8/6/6 7/14/6
