# Blender 3.6.0
# www.blender.org
mtllib Box.mtl
o Cube
v 10.000000 2.000000 -10.000000
v 10.000000 -2.000000 -10.000000
v 10.000000 2.000000 10.000000
v 10.000000 -2.000000 10.000000
v -10.000000 2.000000 -10.000000
v -10.000000 -2.000000 -10.000000
v -10.000000 2.000000 10.000000
v -10.000000 -2.000000 10.000000
v 10.000000 2.766229 10.000000
v -10.000000 2.766229 10.000000
v 10.000000 2.766229 -10.000000
v -10.000000 2.766229 -10.000000
vn 1.0000 -0.0000 -0.0000
vn -0.0000 -0.0000 -1.0000
vn -0.0000 1.0000 -0.0000
vn -0.0000 -0.0000 1.0000
vn -1.0000 -0.0000 -0.0000
vt 0.536675 0.652006
vt 0.869559 0.715772
vt 0.536675 0.715772
vt 0.300835 0.280463
vt 0.058181 0.037808
vt 0.300835 0.037808
vt 0.543818 0.037808
vt 0.301163 0.280463
vt 0.301163 0.037808
vt 0.544145 0.037808
vt 0.786800 0.280463
vt 0.544145 0.280463
vt 0.536225 0.587790
vt 0.203341 0.920674
vt 0.203341 0.587790
vt 0.058181 0.280791
vt 0.300835 0.523445
vt 0.058181 0.523445
vt 0.869559 0.651556
vt 0.536675 0.587790
vt 0.869559 0.587790
vt 0.536675 0.716222
vt 0.869559 0.779988
vt 0.536675 0.779988
vt 0.869559 0.844204
vt 0.536675 0.780437
vt 0.869559 0.780437
vt 0.869559 0.652006
vt 0.058181 0.280463
vt 0.543817 0.280463
vt 0.786800 0.037808
vt 0.536225 0.920674
vt 0.300835 0.280791
vt 0.536675 0.651557
vt 0.869559 0.716222
vt 0.536675 0.844204
s 0
usemtl Material
f 11/1/1 3/2/1 1/3/1
f 8/4/2 3/5/2 4/6/2
f 6/7/1 7/8/1 8/9/1
f 8/10/3 2/11/3 6/12/3
f 12/13/3 9/14/3 11/15/3
f 2/16/4 5/17/4 6/18/4
f 12/19/2 1/20/2 5/21/2
f 9/22/4 7/23/4 3/24/4
f 10/25/5 5/26/5 7/27/5
f 11/1/1 9/28/1 3/2/1
f 8/4/2 7/29/2 3/5/2
f 6/7/1 5/30/1 7/8/1
f 8/10/3 4/31/3 2/11/3
f 12/13/3 10/32/3 9/14/3
f 2/16/4 1/33/4 5/17/4
f 12/19/2 11/34/2 1/20/2
f 9/22/4 10/35/4 7/23/4
f 10/25/5 12/36/5 5/26/5
