# Blender 4.1.1
# www.blender.org
mtllib wall.mtl
o Cube.010
v -99.511223 198.914276 -4.306324
v -99.511223 -0.108177 -4.306294
v -99.511223 198.914276 -4.457966
v -99.511223 -0.108177 -4.457936
v 99.511223 198.914276 -4.306341
v 99.511223 -0.108177 -4.306311
v 99.511223 198.914276 -4.457983
v 99.511223 -0.108177 -4.457954
vn -0.0000 -0.0000 1.0000
vn -1.0000 -0.0000 -0.0000
vn -0.0000 1.0000 -0.0000
vn 1.0000 -0.0000 -0.0000
vn -0.0000 -1.0000 -0.0000
vt 0.500000 0.250043
vt 0.500000 0.500000
vt 0.250043 0.500000
vt 0.250043 0.749957
vt 0.500000 0.749957
vt 0.749957 0.500000
vt 0.250043 0.250043
vt 0.749957 0.749957
vt 0.500000 0.000087
vt 0.250043 0.000087
vt 0.000087 0.749957
vt 0.000087 0.500000
s 0
usemtl Material.002
f 5/1/1 1/2/1 2/3/1
f 1/2/2 4/4/2 2/3/2
f 1/2/2 3/5/2 4/4/2
f 5/6/3 3/5/3 1/2/3
f 5/1/1 2/3/1 6/7/1
f 5/6/3 7/8/3 3/5/3
f 7/9/4 5/1/4 6/7/4
f 7/9/4 6/7/4 8/10/4
f 2/3/5 4/4/5 8/11/5
f 2/3/5 8/11/5 6/12/5
