# Blender 3.6.0
# www.blender.org
mtllib Arrow.mtl
o 立方体
v -0.300000 0.000000 1.000000
v 0.300000 0.000000 1.000000
v 0.300000 -1.000000 -0.000000
v 0.300000 1.000000 -0.000000
v -0.300000 -1.000000 0.000000
v -0.300000 1.000000 0.000000
v 0.300000 -0.305600 -1.000000
v -0.300000 -0.305600 -1.000000
v -0.300000 0.305600 -1.000000
v 0.300000 0.305600 -1.000000
v 0.300000 -0.305600 -0.000000
v -0.300000 0.305600 0.000000
v 0.300000 0.305600 -0.000000
v -0.300000 -0.305600 0.000000
vn -0.0000 -0.0000 -1.0000
vn 1.0000 -0.0000 -0.0000
vn -0.0000 -0.7071 0.7071
vn -0.0000 0.7071 0.7071
vn -1.0000 -0.0000 -0.0000
vn -0.0000 1.0000 -0.0000
vn -0.0000 -1.0000 -0.0000
vt 0.125000 0.750000
vt 0.875000 0.500000
vt 0.125000 0.500000
vt 0.375000 0.375000
vt 0.625000 0.375000
vt 0.375000 0.500000
vt 0.250000 0.750000
vt 0.250000 0.500000
vt 0.750000 0.500000
vt 0.625000 0.750000
vt 0.625000 0.500000
vt 0.750000 0.750000
vt 0.625000 0.875000
vt 0.375000 0.875000
vt 0.875000 0.750000
vt 0.375000 0.750000
s 0
usemtl マテリアル
f 8/1/1 10/2/1 7/3/1
f 3/4/2 4/5/2 2/6/2
f 2/6/3 5/7/3 3/8/3
f 4/9/4 1/10/4 2/11/4
f 4/9/1 12/12/1 6/12/1
f 1/10/5 6/13/5 5/14/5
f 10/2/6 12/12/6 13/9/6
f 11/8/7 8/1/7 7/3/7
f 13/9/2 7/3/2 10/2/2
f 5/7/1 11/8/1 3/8/1
f 9/15/5 14/7/5 12/12/5
f 8/1/1 9/15/1 10/2/1
f 2/6/3 1/16/3 5/7/3
f 4/9/4 6/12/4 1/10/4
f 4/9/1 13/9/1 12/12/1
f 10/2/6 9/15/6 12/12/6
f 11/8/7 14/7/7 8/1/7
f 13/9/2 11/8/2 7/3/2
f 5/7/1 14/7/1 11/8/1
f 9/15/5 8/1/5 14/7/5
