# Blender 4.1.1
# www.blender.org
mtllib bossAtackArm.mtl
o Cube
v -0.482046 3.296893 0.857888
v -0.482046 -3.296893 0.857888
v -0.482046 3.296893 -0.857888
v -0.482046 -3.296893 -0.857888
v 0.482046 3.296893 0.857888
v 0.482046 -3.296893 0.857888
v 0.482046 3.296893 -0.857888
v 0.482046 -3.296893 -0.857888
v 0.819518 2.543934 -1.458480
v 0.819518 5.460895 -1.458480
v 0.819518 2.543934 1.458480
v 0.819518 5.460895 1.458480
v -0.819518 2.543934 -1.458480
v -0.819518 5.460895 -1.458480
v -0.819518 2.543934 1.458480
v -0.819518 5.460895 1.458480
v 0.819518 3.371951 -0.808785
v 0.819518 5.460895 -0.808785
v 0.819518 5.460895 0.808785
v 0.819518 3.371951 0.808785
v -0.819518 5.460895 -0.808785
v -0.819518 3.371951 0.808785
v -0.819518 5.460895 0.808785
v -0.819518 3.371951 -0.808785
vn -0.0000 1.0000 -0.0000
vn -0.0000 -0.0000 -1.0000
vn 1.0000 -0.0000 -0.0000
vn -0.0000 -1.0000 -0.0000
vn -1.0000 -0.0000 -0.0000
vn -0.0000 -0.0000 1.0000
vt 0.701349 0.704916
vt 0.699158 0.707119
vt 0.696954 0.704928
vt 0.699145 0.702725
vt 0.701336 0.700522
vt 0.696942 0.700534
vt 0.699133 0.698331
vt 0.707946 0.707094
vt 0.705755 0.709298
vt 0.703552 0.707107
vt 0.705743 0.704903
vt 0.705730 0.700509
vt 0.703540 0.702713
vt 0.703527 0.698318
vt 0.709293 0.705253
vt 0.000171 0.000171
vt 0.000241 0.000183
s 0
usemtl Material
f 1/1/1 5/2/1 7/3/1 3/4/1
f 4/5/2 3/4/2 7/6/2 8/7/2
f 8/8/3 7/9/3 5/10/3 6/11/3
f 6/12/4 2/13/4 4/5/4 8/14/4
f 2/13/5 1/1/5 3/4/5 4/5/5
f 6/11/6 5/10/6 1/1/6 2/13/6
f 12/15/3 11/15/3 9/16/3 10/15/3 18/15/3 17/15/3 20/17/3 19/15/3
f 11/15/6 12/15/6 16/15/6 15/16/6
f 14/15/5 13/15/5 15/16/5 16/15/5 23/15/5 22/15/5 24/16/5 21/15/5
f 13/15/2 14/15/2 10/15/2 9/16/2
f 11/15/4 15/16/4 13/15/4 9/16/4
f 18/15/1 10/15/1 14/15/1 21/15/1
f 23/15/1 16/15/1 12/15/1 19/15/1
f 19/15/2 20/17/2 22/15/2 23/15/2
f 24/16/6 17/15/6 18/15/6 21/15/6
f 22/15/1 20/17/1 17/15/1 24/16/1
