# Blender 3.6.0
# www.blender.org
mtllib Sword.mtl
o 立方体
v 0.000000 1.200000 0.272385
v 0.000000 1.200000 -0.272385
v -0.127757 0.800000 -0.144423
v -0.127757 0.800000 0.144423
v 0.127757 0.800000 0.144423
v 0.127757 0.800000 -0.144423
v -0.127757 0.110343 -0.144423
v -0.127757 0.110343 0.144423
v 0.127757 0.110343 0.144423
v 0.127757 0.110343 -0.144423
v 0.000000 5.095400 0.000000
v -0.110378 1.200000 0.000000
v 0.110378 1.200000 0.000000
v 0.000000 4.618996 0.272385
v 0.000000 4.618996 -0.272385
v 0.110378 4.618996 0.000000
v -0.110378 4.618996 0.000000
v -0.061126 0.800000 0.500000
v -0.150000 0.800000 0.411126
v -0.150000 0.800000 -0.411126
v -0.061126 0.800000 -0.500000
v 0.150000 0.800000 0.411126
v 0.061126 0.800000 0.500000
v 0.061126 0.800000 -0.500000
v 0.150000 0.800000 -0.411126
v -0.061126 1.200000 -0.500000
v -0.150000 1.200000 -0.411126
v 0.150000 1.200000 -0.411126
v 0.061126 1.200000 -0.500000
v 0.061126 1.200000 0.500000
v 0.150000 1.200000 0.411126
v -0.150000 1.200000 0.411126
v -0.061126 1.200000 0.500000
vn -0.0000 -1.0000 -0.0000
vn -0.0000 -0.0000 -1.0000
vn -0.0000 -0.0000 1.0000
vn -1.0000 -0.0000 -0.0000
vn 1.0000 -0.0000 -0.0000
vn -0.9061 0.2099 0.3672
vn -0.0000 1.0000 -0.0000
vn 0.9061 0.2099 -0.3672
vn 0.9061 0.2099 0.3672
vn -0.9061 0.2099 -0.3672
vn -0.9268 -0.0000 -0.3756
vn 0.9268 -0.0000 0.3756
vn 0.9268 -0.0000 -0.3756
vn -0.9268 -0.0000 0.3756
vn -0.7071 -0.0000 0.7071
vn -0.7071 -0.0000 -0.7071
vn 0.7071 -0.0000 -0.7071
vn 0.7071 -0.0000 0.7071
vt 0.375000 0.000000
vt 0.375000 0.227781
vt 0.375000 0.425938
vt 0.625000 0.324062
vt 0.375000 0.324062
vt 0.143536 0.661106
vt 0.356464 0.661106
vt 0.625000 0.824062
vt 0.375000 0.925938
vt 0.375000 0.824062
vt 0.375000 0.022219
vt 0.625000 0.227781
vt 0.356464 0.588894
vt 0.143536 0.588894
vt 0.841982 0.625000
vt 0.841982 0.740094
vt 0.625000 0.925938
vt 0.625000 0.727781
vt 0.625000 0.425938
vt 0.658018 0.625000
vt 0.658018 0.509905
vt 0.658018 0.740094
vt 0.841982 0.509905
vt 0.841982 0.509906
vt 0.658018 0.509906
vt 0.841982 0.740094
vt 0.625000 0.000000
vt 0.375000 0.522219
vt 0.625000 0.522219
vt 0.375000 0.727781
vt 0.625000 0.022219
s 0
usemtl マテリアル.001
f 18/1/1 20/2/1 24/3/1
f 26/4/2 24/3/2 21/5/2
f 4/6/3 9/7/3 5/7/3
f 30/8/3 18/9/3 23/10/3
f 19/11/4 27/12/4 20/2/4
f 10/13/1 8/6/1 7/14/1
f 5/7/5 10/13/5 6/13/5
f 6/13/2 7/14/2 3/14/2
f 3/14/4 8/6/4 4/6/4
f 17/15/6 14/16/6 11/15/6
f 33/17/7 31/18/7 29/19/7
f 16/20/8 15/21/8 11/20/8
f 14/22/9 16/20/9 11/22/9
f 15/23/10 17/15/10 11/24/10
f 12/15/11 15/23/11 2/24/11
f 13/20/12 14/22/12 1/22/12
f 2/25/13 16/20/13 13/20/13
f 1/26/14 17/15/14 12/15/14
f 33/27/15 19/11/15 18/1/15
f 21/5/16 27/12/16 26/4/16
f 25/28/17 29/19/17 28/29/17
f 23/10/18 31/18/18 30/8/18
f 25/28/5 31/18/5 22/30/5
f 24/3/1 25/28/1 22/30/1
f 22/30/1 23/10/1 18/1/1
f 18/1/1 19/11/1 20/2/1
f 20/2/1 21/5/1 24/3/1
f 24/3/1 22/30/1 18/1/1
f 26/4/2 29/19/2 24/3/2
f 4/6/3 8/6/3 9/7/3
f 30/8/3 33/17/3 18/9/3
f 19/11/4 32/31/4 27/12/4
f 10/13/1 9/7/1 8/6/1
f 5/7/5 9/7/5 10/13/5
f 6/13/2 10/13/2 7/14/2
f 3/14/4 7/14/4 8/6/4
f 29/19/7 26/4/7 27/12/7
f 27/12/7 32/31/7 33/17/7
f 33/17/7 30/8/7 31/18/7
f 31/18/7 28/29/7 29/19/7
f 29/19/7 27/12/7 33/17/7
f 12/15/11 17/15/11 15/23/11
f 13/20/12 16/20/12 14/22/12
f 2/25/13 15/21/13 16/20/13
f 1/26/14 14/16/14 17/15/14
f 33/27/15 32/31/15 19/11/15
f 21/5/16 20/2/16 27/12/16
f 25/28/17 24/3/17 29/19/17
f 23/10/18 22/30/18 31/18/18
f 25/28/5 28/29/5 31/18/5
