# Blender 3.6.0
# www.blender.org
mtllib playerBody.mtl
o 立方体
v 0.143636 3.081542 0.889920
v 0.143636 3.529943 0.889920
v 0.143636 3.081542 0.518961
v 0.143636 3.529943 0.518961
v 0.669124 3.081542 0.889920
v 0.669124 3.529943 0.889920
v 0.669124 3.081542 0.518961
v 0.669124 3.529943 0.518961
v 0.921667 2.244956 -0.564196
v 0.921667 0.680022 -0.564196
v 0.921667 2.244956 0.564196
v 0.921667 0.680022 0.564196
v -0.921667 2.244956 -0.564196
v -0.921667 0.680022 -0.564196
v -0.921667 2.244956 0.564196
v -0.921667 0.680022 0.564196
v 1.069440 3.839397 -0.796510
v 1.069440 2.274463 -0.796510
v 1.069440 3.839397 0.796510
v 1.069440 2.274463 0.796510
v -1.069440 3.839397 -0.796509
v -1.069440 2.274463 -0.796509
v -1.069440 3.839397 0.796511
v -1.069440 2.274463 0.796511
v 0.446608 2.823545 0.552007
v 0.446608 2.502848 0.552007
v 0.446608 2.823545 0.990621
v 0.446608 2.502848 0.990621
v -0.446608 2.823545 0.552007
v -0.446608 2.502848 0.552007
v -0.446608 2.823545 0.990621
v -0.446608 2.502848 0.990621
v -0.263570 2.502848 0.552007
v -0.272359 2.502848 0.552007
v -0.263570 2.823545 0.990621
v -0.272359 2.823545 0.990621
v -0.263570 2.502848 0.990621
v -0.272359 2.502848 0.990621
v -0.272359 2.823545 0.552007
v -0.263570 2.823545 0.552007
v -0.083281 2.502848 0.552007
v -0.095362 2.502848 0.552007
v -0.083281 2.823545 0.990621
v -0.095362 2.823545 0.990621
v -0.083281 2.502848 0.990621
v -0.095362 2.502848 0.990621
v -0.095362 2.823545 0.552007
v -0.083281 2.823545 0.552007
v 0.096873 2.502848 0.552007
v 0.081770 2.502848 0.552007
v 0.096873 2.823545 0.990621
v 0.081770 2.823545 0.990621
v 0.096873 2.502848 0.990621
v 0.081770 2.502848 0.990621
v 0.081770 2.823545 0.552007
v 0.096873 2.823545 0.552007
v 0.274163 2.502848 0.552007
v 0.261766 2.502848 0.552007
v 0.274163 2.823545 0.990621
v 0.261766 2.823545 0.990621
v 0.274163 2.502848 0.990621
v 0.261766 2.502848 0.990621
v 0.261766 2.823545 0.552007
v 0.274163 2.823545 0.552007
v -0.263570 2.502848 0.960693
v -0.272359 2.502848 0.960693
v -0.263570 2.823545 0.960693
v -0.272359 2.823545 0.960693
v -0.083281 2.502848 0.960693
v -0.095362 2.502848 0.960693
v -0.083281 2.823545 0.960693
v -0.095362 2.823545 0.960693
v 0.096873 2.502848 0.960693
v 0.081770 2.502848 0.960693
v 0.096873 2.823545 0.960693
v 0.081770 2.823545 0.960693
v 0.274163 2.502848 0.960693
v 0.261766 2.502848 0.960693
v 0.274163 2.823545 0.960693
v 0.261766 2.823545 0.960693
v -0.669124 3.081542 0.889920
v -0.669124 3.529943 0.889920
v -0.669124 3.081542 0.518961
v -0.669124 3.529943 0.518961
v -0.143636 3.081542 0.889920
v -0.143636 3.529943 0.889920
v -0.143636 3.081542 0.518961
v -0.143636 3.529943 0.518961
v -0.000000 0.010960 -0.301109
v -0.000000 1.026873 -0.507957
v 0.058744 0.010960 -0.295324
v 0.099097 1.026873 -0.498196
v 0.115230 0.010960 -0.278189
v 0.194387 1.026873 -0.469291
v 0.167287 0.010960 -0.250363
v 0.282206 1.026873 -0.422351
v 0.212916 0.010960 -0.212916
v 0.359180 1.026873 -0.359180
v 0.250363 0.010960 -0.167287
v 0.422350 1.026873 -0.282206
v 0.278189 0.010960 -0.115230
v 0.469291 1.026873 -0.194387
v 0.295324 0.010960 -0.058744
v 0.498196 1.026873 -0.099097
v 0.301109 0.010960 -0.000000
v 0.507957 1.026873 -0.000000
v 0.295324 0.010960 0.058743
v 0.498196 1.026873 0.099097
v 0.278189 0.010960 0.115229
v 0.469291 1.026873 0.194387
v 0.250363 0.010960 0.167287
v 0.422350 1.026873 0.282206
v 0.212916 0.010960 0.212916
v 0.359180 1.026873 0.359180
v 0.167287 0.010960 0.250363
v 0.282206 1.026873 0.422350
v 0.115230 0.010960 0.278189
v 0.194387 1.026873 0.469291
v 0.058744 0.010960 0.295324
v 0.099097 1.026873 0.498196
v 0.000000 0.010960 0.301109
v 0.000000 1.026873 0.507957
v -0.058743 0.010960 0.295324
v -0.099097 1.026873 0.498196
v -0.115230 0.010960 0.278189
v -0.194387 1.026873 0.469291
v -0.167287 0.010960 0.250363
v -0.282206 1.026873 0.422350
v -0.212916 0.010960 0.212916
v -0.359179 1.026873 0.359180
v -0.250363 0.010960 0.167287
v -0.422350 1.026873 0.282206
v -0.278189 0.010960 0.115229
v -0.469291 1.026873 0.194387
v -0.295324 0.010960 0.058743
v -0.498196 1.026873 0.099097
v -0.301109 0.010960 0.000000
v -0.507957 1.026873 0.000000
v -0.295324 0.010960 -0.058744
v -0.498196 1.026873 -0.099097
v -0.278189 0.010960 -0.115230
v -0.469291 1.026873 -0.194387
v -0.250363 0.010960 -0.167287
v -0.422350 1.026873 -0.282206
v -0.212916 0.010960 -0.212916
v -0.359179 1.026873 -0.359180
v -0.167287 0.010960 -0.250363
v -0.282206 1.026873 -0.422351
v -0.115230 0.010960 -0.278189
v -0.194387 1.026873 -0.469291
v -0.058743 0.010960 -0.295324
v -0.099097 1.026873 -0.498196
vn -1.0000 -0.0000 -0.0000
vn -0.0000 -0.0000 -1.0000
vn 1.0000 -0.0000 -0.0000
vn -0.0000 -0.0000 1.0000
vn -0.0000 -1.0000 -0.0000
vn -0.0000 1.0000 -0.0000
vn 0.0961 -0.1986 -0.9754
vn 0.2845 -0.1986 -0.9379
vn 0.4620 -0.1986 -0.8643
vn 0.6218 -0.1986 -0.7576
vn 0.7576 -0.1986 -0.6218
vn 0.8643 -0.1986 -0.4620
vn 0.9379 -0.1986 -0.2845
vn 0.9754 -0.1986 -0.0961
vn 0.9754 -0.1986 0.0961
vn 0.9379 -0.1986 0.2845
vn 0.8644 -0.1986 0.4620
vn 0.7576 -0.1986 0.6218
vn 0.6218 -0.1986 0.7576
vn 0.4620 -0.1986 0.8643
vn 0.2845 -0.1986 0.9379
vn 0.0961 -0.1986 0.9754
vn -0.0961 -0.1986 0.9754
vn -0.2845 -0.1986 0.9379
vn -0.4620 -0.1986 0.8643
vn -0.6218 -0.1986 0.7576
vn -0.7576 -0.1986 0.6218
vn -0.8644 -0.1986 0.4620
vn -0.9379 -0.1986 0.2845
vn -0.9754 -0.1986 0.0961
vn -0.9754 -0.1986 -0.0961
vn -0.9379 -0.1986 -0.2845
vn -0.8643 -0.1986 -0.4620
vn -0.7576 -0.1986 -0.6218
vn -0.6218 -0.1986 -0.7576
vn -0.4620 -0.1986 -0.8643
vn -0.2845 -0.1986 -0.9379
vn -0.0961 -0.1986 -0.9754
vn 0.4620 -0.1986 -0.8644
vn 0.8644 -0.1986 -0.4620
vn 0.4620 -0.1986 0.8644
vn -0.4620 -0.1986 0.8644
vn -0.8644 -0.1986 -0.4620
vn -0.4620 -0.1986 -0.8644
vt 0.351104 0.042237
vt 0.345105 0.048235
vt 0.345105 0.042237
vt 0.351104 0.048235
vt 0.345105 0.054233
vt 0.351104 0.054233
vt 0.345105 0.060231
vt 0.351104 0.060231
vt 0.345105 0.066229
vt 0.339107 0.060231
vt 0.339107 0.054233
vt 0.357101 0.054233
vt 0.339107 0.100722
vt 0.339107 0.112884
vt 0.340378 0.078392
vt 0.339107 0.088559
vt 0.340378 0.088559
vt 0.339107 0.078392
vt 0.345105 0.030074
vt 0.351104 0.024076
vt 0.351103 0.030074
vt 0.345105 0.024076
vt 0.351103 0.018078
vt 0.345105 0.018078
vt 0.351103 0.012080
vt 0.345105 0.012080
vt 0.351103 0.006081
vt 0.357102 0.012080
vt 0.357102 0.018078
vt 0.339107 0.018078
vt 0.218438 0.659900
vt 0.315239 0.914486
vt 0.250544 0.644968
vt 0.307032 0.846653
vt 0.277395 0.625063
vt 0.297830 0.782307
vt 0.298679 0.601117
vt 0.286935 0.719880
vt 0.314108 0.573973
vt 0.274289 0.658797
vt 0.323534 0.544472
vt 0.259971 0.598786
vt 0.326944 0.513539
vt 0.243892 0.539290
vt 0.324431 0.482158
vt 0.226154 0.480580
vt 0.316216 0.451457
vt 0.304841 0.421783
vt 0.206144 0.423046
vt 0.288468 0.394898
vt 0.184334 0.365857
vt 0.267581 0.371836
vt 0.160529 0.308422
vt 0.242642 0.353463
vt 0.134728 0.251087
vt 0.214206 0.340528
vt 0.106687 0.193630
vt 0.182887 0.333635
vt 0.076068 0.135425
vt 0.149410 0.333307
vt 0.043073 0.076487
vt 0.114632 0.340102
vt 0.017177 0.083417
vt 0.082453 0.355048
vt 0.026060 0.153426
vt 0.055612 0.374955
vt 0.035256 0.217757
vt 0.034335 0.398901
vt 0.046145 0.280170
vt 0.018911 0.426045
vt 0.058786 0.341240
vt 0.009489 0.455546
vt 0.073100 0.401239
vt 0.006081 0.486479
vt 0.089175 0.460725
vt 0.008596 0.517859
vt 0.106910 0.519424
vt 0.016812 0.548559
vt 0.028186 0.578233
vt 0.126917 0.576948
vt 0.044557 0.605118
vt 0.148724 0.634126
vt 0.065442 0.628181
vt 0.172525 0.691550
vt 0.090377 0.646556
vt 0.198322 0.748872
vt 0.118808 0.659494
vt 0.226360 0.806314
vt 0.150122 0.666392
vt 0.256974 0.864501
vt 0.183593 0.666726
vt 0.290690 0.925600
vt 0.351104 0.066229
vt 0.357102 0.060231
vt 0.345105 0.006081
vt 0.339107 0.012080
vt 0.326944 0.993919
vt 0.006129 0.006081
s 0
usemtl マテリアル
f 2/1/1 3/2/1 1/3/1
f 4/4/2 7/5/2 3/2/2
f 8/6/3 5/7/3 7/5/3
f 6/8/4 1/9/4 5/7/4
f 7/5/5 1/10/5 3/11/5
f 4/12/6 6/8/6 8/6/6
f 13/13/6 11/13/6 9/13/6
f 11/13/4 16/13/4 12/13/4
f 15/13/1 14/13/1 16/13/1
f 10/13/5 16/13/5 14/13/5
f 9/13/3 12/13/3 10/13/3
f 13/13/2 10/13/2 14/13/2
f 21/14/6 19/14/6 17/14/6
f 19/14/4 24/14/4 20/14/4
f 23/14/1 22/14/1 24/14/1
f 18/14/5 24/14/5 22/14/5
f 17/14/3 20/14/3 18/14/3
f 21/14/2 18/14/2 22/14/2
f 44/15/4 37/15/4 46/16/4
f 31/17/1 30/17/1 32/17/1
f 64/18/6 27/17/6 25/17/6
f 25/17/3 28/17/3 26/17/3
f 58/18/5 53/15/5 49/17/5
f 40/18/2 42/18/2 33/17/2
f 36/15/4 32/17/4 38/16/4
f 42/18/5 37/15/5 33/17/5
f 50/18/5 45/15/5 41/17/5
f 29/17/2 34/18/2 30/17/2
f 52/15/4 45/15/4 54/16/4
f 60/15/4 53/15/4 62/16/4
f 26/17/5 61/15/5 57/17/5
f 56/18/6 60/15/6 63/17/6
f 48/18/6 52/15/6 55/17/6
f 40/18/6 44/15/6 47/17/6
f 29/17/6 36/15/6 39/17/6
f 27/17/4 61/15/4 28/17/4
f 33/17/2 39/17/2 40/18/2
f 37/15/5 34/18/5 33/17/5
f 61/15/6 78/17/6 62/16/6
f 36/15/6 40/18/6 39/17/6
f 34/18/5 32/17/5 30/17/5
f 41/17/2 47/17/2 48/18/2
f 45/15/5 42/18/5 41/17/5
f 44/15/5 71/17/5 43/16/5
f 44/15/6 48/18/6 47/17/6
f 48/18/2 50/18/2 41/17/2
f 49/17/2 55/17/2 56/18/2
f 53/15/5 50/18/5 49/17/5
f 38/16/3 68/17/3 36/15/3
f 52/15/6 56/18/6 55/17/6
f 56/18/2 58/18/2 49/17/2
f 57/17/2 63/17/2 64/18/2
f 61/15/5 58/18/5 57/17/5
f 53/15/6 74/17/6 54/16/6
f 60/15/6 64/18/6 63/17/6
f 64/18/2 26/17/2 57/17/2
f 66/17/4 67/17/4 68/17/4
f 70/17/4 71/17/4 72/17/4
f 74/17/4 75/17/4 76/17/4
f 78/17/4 79/17/4 80/17/4
f 35/16/1 65/17/1 37/15/1
f 46/16/3 72/17/3 44/15/3
f 52/15/5 75/17/5 51/16/5
f 43/16/1 69/17/1 45/15/1
f 54/16/3 76/17/3 52/15/3
f 60/15/5 79/17/5 59/16/5
f 51/16/1 73/17/1 53/15/1
f 62/16/3 80/17/3 60/15/3
f 37/15/6 66/17/6 38/16/6
f 59/16/1 77/17/1 61/15/1
f 45/15/6 70/17/6 46/16/6
f 36/15/5 67/17/5 35/16/5
f 82/19/1 83/20/1 81/21/1
f 84/22/2 87/23/2 83/20/2
f 88/24/3 85/25/3 87/23/3
f 86/26/4 81/27/4 85/25/4
f 87/23/5 81/28/5 83/29/5
f 84/30/6 86/26/6 88/24/6
f 89/31/7 92/32/7 91/33/7
f 91/33/8 94/34/8 93/35/8
f 93/35/9 96/36/9 95/37/9
f 95/37/10 98/38/10 97/39/10
f 97/39/11 100/40/11 99/41/11
f 99/41/12 102/42/12 101/43/12
f 101/43/13 104/44/13 103/45/13
f 103/45/14 106/46/14 105/47/14
f 106/46/15 107/48/15 105/47/15
f 108/49/16 109/50/16 107/48/16
f 110/51/17 111/52/17 109/50/17
f 112/53/18 113/54/18 111/52/18
f 114/55/19 115/56/19 113/54/19
f 116/57/20 117/58/20 115/56/20
f 118/59/21 119/60/21 117/58/21
f 120/61/22 121/62/22 119/60/22
f 121/62/23 124/63/23 123/64/23
f 123/64/24 126/65/24 125/66/24
f 125/66/25 128/67/25 127/68/25
f 127/68/26 130/69/26 129/70/26
f 129/70/27 132/71/27 131/72/27
f 131/72/28 134/73/28 133/74/28
f 133/74/29 136/75/29 135/76/29
f 135/76/30 138/77/30 137/78/30
f 138/77/31 139/79/31 137/78/31
f 140/80/32 141/81/32 139/79/32
f 142/82/33 143/83/33 141/81/33
f 144/84/34 145/85/34 143/83/34
f 146/86/35 147/87/35 145/85/35
f 148/88/36 149/89/36 147/87/36
f 98/38/6 96/36/6 146/86/6
f 150/90/37 151/91/37 149/89/37
f 152/92/38 89/31/38 151/91/38
f 2/1/1 4/4/1 3/2/1
f 4/4/2 8/6/2 7/5/2
f 8/6/3 6/8/3 5/7/3
f 6/8/4 2/93/4 1/9/4
f 7/5/5 5/7/5 1/10/5
f 4/12/6 2/94/6 6/8/6
f 13/13/6 15/13/6 11/13/6
f 11/13/4 15/13/4 16/13/4
f 15/13/1 13/13/1 14/13/1
f 10/13/5 12/13/5 16/13/5
f 9/13/3 11/13/3 12/13/3
f 13/13/2 9/13/2 10/13/2
f 21/14/6 23/14/6 19/14/6
f 19/14/4 23/14/4 24/14/4
f 23/14/1 21/14/1 22/14/1
f 18/14/5 20/14/5 24/14/5
f 17/14/3 19/14/3 20/14/3
f 21/14/2 17/14/2 18/14/2
f 44/15/4 35/16/4 37/15/4
f 31/17/1 29/17/1 30/17/1
f 64/18/6 59/16/6 27/17/6
f 25/17/3 27/17/3 28/17/3
f 58/18/5 62/16/5 53/15/5
f 40/18/2 47/17/2 42/18/2
f 36/15/4 31/17/4 32/17/4
f 42/18/5 46/16/5 37/15/5
f 50/18/5 54/16/5 45/15/5
f 29/17/2 39/17/2 34/18/2
f 52/15/4 43/16/4 45/15/4
f 60/15/4 51/16/4 53/15/4
f 26/17/5 28/17/5 61/15/5
f 56/18/6 51/16/6 60/15/6
f 48/18/6 43/16/6 52/15/6
f 40/18/6 35/16/6 44/15/6
f 29/17/6 31/17/6 36/15/6
f 27/17/4 59/16/4 61/15/4
f 33/17/2 34/18/2 39/17/2
f 37/15/5 38/16/5 34/18/5
f 61/15/6 77/17/6 78/17/6
f 36/15/6 35/16/6 40/18/6
f 34/18/5 38/16/5 32/17/5
f 41/17/2 42/18/2 47/17/2
f 45/15/5 46/16/5 42/18/5
f 44/15/5 72/17/5 71/17/5
f 44/15/6 43/16/6 48/18/6
f 48/18/2 55/17/2 50/18/2
f 49/17/2 50/18/2 55/17/2
f 53/15/5 54/16/5 50/18/5
f 38/16/3 66/17/3 68/17/3
f 52/15/6 51/16/6 56/18/6
f 56/18/2 63/17/2 58/18/2
f 57/17/2 58/18/2 63/17/2
f 61/15/5 62/16/5 58/18/5
f 53/15/6 73/17/6 74/17/6
f 60/15/6 59/16/6 64/18/6
f 64/18/2 25/17/2 26/17/2
f 66/17/4 65/17/4 67/17/4
f 70/17/4 69/17/4 71/17/4
f 74/17/4 73/17/4 75/17/4
f 78/17/4 77/17/4 79/17/4
f 35/16/1 67/17/1 65/17/1
f 46/16/3 70/17/3 72/17/3
f 52/15/5 76/17/5 75/17/5
f 43/16/1 71/17/1 69/17/1
f 54/16/3 74/17/3 76/17/3
f 60/15/5 80/17/5 79/17/5
f 51/16/1 75/17/1 73/17/1
f 62/16/3 78/17/3 80/17/3
f 37/15/6 65/17/6 66/17/6
f 59/16/1 79/17/1 77/17/1
f 45/15/6 69/17/6 70/17/6
f 36/15/5 68/17/5 67/17/5
f 82/19/1 84/22/1 83/20/1
f 84/22/2 88/24/2 87/23/2
f 88/24/3 86/26/3 85/25/3
f 86/26/4 82/95/4 81/27/4
f 87/23/5 85/25/5 81/28/5
f 84/30/6 82/96/6 86/26/6
f 89/31/7 90/97/7 92/32/7
f 91/33/8 92/32/8 94/34/8
f 93/35/39 94/34/39 96/36/39
f 95/37/10 96/36/10 98/38/10
f 97/39/11 98/38/11 100/40/11
f 99/41/40 100/40/40 102/42/40
f 101/43/13 102/42/13 104/44/13
f 103/45/14 104/44/14 106/46/14
f 106/46/15 108/49/15 107/48/15
f 108/49/16 110/51/16 109/50/16
f 110/51/17 112/53/17 111/52/17
f 112/53/18 114/55/18 113/54/18
f 114/55/19 116/57/19 115/56/19
f 116/57/41 118/59/41 117/58/41
f 118/59/21 120/61/21 119/60/21
f 120/61/22 122/98/22 121/62/22
f 121/62/23 122/98/23 124/63/23
f 123/64/24 124/63/24 126/65/24
f 125/66/42 126/65/42 128/67/42
f 127/68/26 128/67/26 130/69/26
f 129/70/27 130/69/27 132/71/27
f 131/72/28 132/71/28 134/73/28
f 133/74/29 134/73/29 136/75/29
f 135/76/30 136/75/30 138/77/30
f 138/77/31 140/80/31 139/79/31
f 140/80/32 142/82/32 141/81/32
f 142/82/43 144/84/43 143/83/43
f 144/84/34 146/86/34 145/85/34
f 146/86/35 148/88/35 147/87/35
f 148/88/44 150/90/44 149/89/44
f 94/34/6 92/32/6 150/90/6
f 92/32/6 90/97/6 152/92/6
f 150/90/6 92/32/6 152/92/6
f 150/90/6 148/88/6 94/34/6
f 148/88/6 146/86/6 96/36/6
f 94/34/6 148/88/6 96/36/6
f 146/86/6 144/84/6 98/38/6
f 144/84/6 142/82/6 100/40/6
f 98/38/6 144/84/6 100/40/6
f 142/82/6 140/80/6 104/44/6
f 140/80/6 138/77/6 106/46/6
f 138/77/6 136/75/6 108/49/6
f 136/75/6 134/73/6 110/51/6
f 134/73/6 132/71/6 110/51/6
f 132/71/6 130/69/6 112/53/6
f 110/51/6 132/71/6 112/53/6
f 130/69/6 128/67/6 114/55/6
f 128/67/6 126/65/6 116/57/6
f 114/55/6 128/67/6 116/57/6
f 126/65/6 124/63/6 120/61/6
f 124/63/6 122/98/6 120/61/6
f 120/61/6 118/59/6 126/65/6
f 118/59/6 116/57/6 126/65/6
f 114/55/6 112/53/6 130/69/6
f 110/51/6 108/49/6 136/75/6
f 108/49/6 106/46/6 138/77/6
f 106/46/6 104/44/6 140/80/6
f 104/44/6 102/42/6 142/82/6
f 102/42/6 100/40/6 142/82/6
f 150/90/37 152/92/37 151/91/37
f 152/92/38 90/97/38 89/31/38
